<svg id="ed9a5289-909a-4a20-a574-95ddcacbe55c" data-name="Layer 1" xmlns="http://www.w3.org/2000/svg" width="797.49606" height="741.61701" viewBox="0 0 797.49606 741.61701"><title>online_messaging</title><ellipse cx="398.74803" cy="723.61701" rx="398.74803" ry="18" fill="#e6e6e6"/><path d="M885.252,252.13875h-3.99878V142.59342A63.40186,63.40186,0,0,0,817.85114,79.1915H585.7647a63.40185,63.40185,0,0,0-63.402,63.40192V743.5676a63.40185,63.40185,0,0,0,63.402,63.40193H817.85114a63.40186,63.40186,0,0,0,63.40205-63.40193V330.115H885.252Z" transform="translate(-201.25197 -79.1915)" fill="#3f3d56"/><path d="M820.40946,95.68648h-30.295A22.49484,22.49484,0,0,1,769.28733,126.677H636.32787a22.49486,22.49486,0,0,1-20.82715-30.99056H587.20516a47.3478,47.3478,0,0,0-47.34787,47.34774V743.12674a47.34781,47.34781,0,0,0,47.34787,47.34781h233.2043a47.34781,47.34781,0,0,0,47.34786-47.34781V143.03422A47.3478,47.3478,0,0,0,820.40946,95.68648Z" transform="translate(-201.25197 -79.1915)" fill="#fff"/><path d="M716.04659,747.97032a89.85864,89.85864,0,1,1,66.44778-29.41325l18.76539,21.03579-9.36429,3.97212c-14.48636,6.1447-28.66235.16556-36.619-4.60628A89.972,89.972,0,0,1,716.04659,747.97032Zm0-164.94755a75.18443,75.18443,0,1,0,36.1439,141.12375l4.00873-2.20267,3.72725,2.65215a39.42238,39.42238,0,0,0,14.2244,6.50794l-11.80838-13.23676,5.17617-4.86417A74.47659,74.47659,0,0,0,791.231,658.2072,75.26969,75.26969,0,0,0,716.04659,583.02277Z" transform="translate(-201.25197 -79.1915)" fill="#e6e6e6"/><path d="M798.52031,658.20711a82.44135,82.44135,0,1,0-42.81969,72.32836c5.70108,4.05632,19.609,12.14706,33.34836,6.31907l-16.5386-18.53939A82.23993,82.23993,0,0,0,798.52031,658.20711Z" transform="translate(-201.25197 -79.1915)" fill="#fff"/><rect x="472.31772" y="562.1527" width="58.93215" height="5.4727" fill="#427abf"/><rect x="472.31772" y="581.08451" width="102.71378" height="5.4727" fill="#e6e6e6"/><rect x="472.31772" y="600.01632" width="102.6132" height="5.4727" fill="#e6e6e6"/><path d="M716.04659,348.97032a89.85864,89.85864,0,1,1,66.44778-29.41325l18.76539,21.03579-9.36429,3.97212c-14.48636,6.1447-28.66235.16556-36.619-4.60628A89.972,89.972,0,0,1,716.04659,348.97032Zm0-164.94755a75.18443,75.18443,0,1,0,36.1439,141.12375l4.00873-2.20267,3.72725,2.65215a39.42238,39.42238,0,0,0,14.2244,6.50794l-11.80838-13.23676,5.17617-4.86417A74.47659,74.47659,0,0,0,791.231,259.2072,75.26969,75.26969,0,0,0,716.04659,184.02277Z" transform="translate(-201.25197 -79.1915)" fill="#e6e6e6"/><path d="M798.52031,259.20711a82.44135,82.44135,0,1,0-42.81969,72.32836c5.70108,4.05632,19.609,12.14706,33.34836,6.31907l-16.5386-18.53939A82.23993,82.23993,0,0,0,798.52031,259.20711Z" transform="translate(-201.25197 -79.1915)" fill="#fff"/><rect x="472.31772" y="163.1527" width="58.93215" height="5.4727" fill="#427abf"/><rect x="472.31772" y="182.08451" width="102.71378" height="5.4727" fill="#e6e6e6"/><rect x="472.31772" y="201.01632" width="102.6132" height="5.4727" fill="#e6e6e6"/><circle cx="629.0315" cy="264.4463" r="13" fill="#e6e6e6"/><circle cx="629.0315" cy="663.4463" r="13" fill="#e6e6e6"/><polygon points="168.77 237.79 162.538 268.954 191.624 290.768 205.128 250.256 168.77 237.79" fill="#9f616a"/><circle cx="192.14308" cy="238.30953" r="28.04729" fill="#9f616a"/><path d="M332.62592,532.01087s21.81456,104.91765,24.93092,115.30553,0,11.42668,0,11.42668-4.15515,3.11636-1.03878,4.15515-6.23274,6.23273-6.23274,6.23273-4.15515,19.737-6.23273,23.89214S332.62592,723.148,331.58713,723.148s-6.23273,15.58183-6.23273,15.58183,12.46546,19.737,25.96971,11.42667l5.19395-9.34909,41.55154-61.28853s17.65941-19.737,13.50425-43.62912l2.07758,24.93092,4.15515,81.02551s-11.42667,7.27153-3.11636,18.6982c0,0,21.81456,7.27152,31.16366-4.15515,0,0,2.07757-6.23274-1.03879-9.3491s-3.11637-3.11637-1.03879-5.19395,5.19394-6.23273,5.19394-8.3103v-8.31031l5.19394-94.52977s-14.543-95.56855-25.96971-100.76249S332.62592,532.01087,332.62592,532.01087Z" transform="translate(-201.25197 -79.1915)" fill="#2f2e41"/><path d="M415.729,756.38921s-13.50426,25.96971-2.07758,29.08608a92.93149,92.93149,0,0,0,21.81456,3.11636s29.08608,22.85335,40.51275,11.42668-5.19394-20.77578-5.19394-20.77578-20.77577-14.543-21.81456-18.69819S415.729,756.38921,415.729,756.38921Z" transform="translate(-201.25197 -79.1915)" fill="#2f2e41"/><path d="M325.87379,737.17162s-23.33694,26.54057-13.30369,32.83458a92.93117,92.93117,0,0,0,19.97539,9.30434s21.21524,30.30164,35.463,22.67666,1.0496-21.38944,1.0496-21.38944-15.66981-19.93966-15.45988-24.21755S325.87379,737.17162,325.87379,737.17162Z" transform="translate(-201.25197 -79.1915)" fill="#2f2e41"/><path d="M433.38841,533.04966s-4.15515,8.31031-20.77577,5.19394-82.0643,0-82.0643,0,3.63576-74.27339-4.67455-118.94129,24.41153-70.11824,24.41153-70.11824l10.38789-10.38788C371.0611,337.7574,393,370,393,370c7.63513,1.27769,19.997,35.61108,25.95962,66.006,2.83594,14.50151,5.37059,29.98989,7.50009,44.23164C430.781,509.20945,433.38841,533.04966,433.38841,533.04966Z" transform="translate(-201.25197 -79.1915)" fill="#427abf"/><path d="M360.58337,300.03708s-5.24388-11.53654,8.39021-16.78042c0,0,11.53654-18.878,34.60962-6.29266,0,0,15.73165,6.29266,15.73165,23.07308s5.24388,19.92675,5.24388,19.92675-7.80905-8.01137-9.9066-14.304-18.41036-7.72028-24.703-1.42762-22.02431,5.24388-22.02431,5.24388l1.04878,23.07308s-5.24388-13.63409-7.34143-13.63409S357.437,300.03708,360.58337,300.03708Z" transform="translate(-201.25197 -79.1915)" fill="#2f2e41"/><path d="M562.27432,537.49511c-8.26529,4.95693-22.99115,11.168-38.03942,4.785l-9.72752-4.1262,19.49328-21.85174a93.0975,93.0975,0,1,1,28.27366,21.193Zm-37.34918-83.88374a77.36541,77.36541,0,0,0,24.63212,56.92126l5.37694,5.05285-12.26641,13.7502a40.95158,40.95158,0,0,0,14.77615-6.76038l3.87182-2.755,4.16423,2.28811a78.109,78.109,0,1,0-40.55485-68.497Z" transform="translate(-201.25197 -79.1915)" fill="#427abf"/><path d="M517.3531,453.61128a85.63915,85.63915,0,1,1,44.48061,75.13387c-5.92222,4.21367-20.36957,12.61824-34.6419,6.56418l17.1801-19.2585A85.42993,85.42993,0,0,1,517.3531,453.61128Z" transform="translate(-201.25197 -79.1915)" fill="#fff"/><path d="M673.55455,453.17858a85.67682,85.67682,0,0,0-78.10073-85.33594c2.49553-.21859,5.01984-.33688,7.5721-.33688a85.67282,85.67282,0,0,1,0,171.34563c-2.5484,0-5.06833-.11982-7.56011-.33793A85.67688,85.67688,0,0,0,673.55455,453.17858Z" transform="translate(-201.25197 -79.1915)" opacity="0.1" style="isolation:isolate"/><rect x="352.58015" y="356.90278" width="61.21804" height="5.68498" fill="#427abf"/><rect x="352.58015" y="376.56893" width="106.6979" height="5.68498" fill="#427abf"/><rect x="352.58015" y="396.23508" width="106.59343" height="5.68498" fill="#427abf"/><path d="M426.45971,480.23762c-24.15183-12.14344-68.37307-44.28357-82.0851-61.20541-17.06728-21.04587,1.54779-37.05357,1.54779-37.05357,21.10819-13.31728,46.35081,32.379,46.35081,32.379L418.95962,436.006C421.79556,450.50749,424.33021,465.99587,426.45971,480.23762Z" transform="translate(-201.25197 -79.1915)" opacity="0.2"/><path d="M496.21645,462.49917s36.84,14.95551,42.90343-1.85649-29.08579-16.52347-29.08579-16.52347l-13.799,1.95528Z" transform="translate(-201.25197 -79.1915)" fill="#9f616a"/><path d="M341.2009,375.14061s-18.611,16.00934-1.5532,37.05236,81.32616,65.65987,95.451,66.00442S486.16238,464.393,486.16238,464.393l14.45073,2.64438,2.7245-27.13051L482.04883,441.985l-60.04131-6.50675-34.46008-27.96117S362.30535,361.82775,341.2009,375.14061Z" transform="translate(-201.25197 -79.1915)" fill="#427abf"/><polygon points="207.748 488.809 211.004 564.889 202.748 488.809 207.748 488.809" opacity="0.2"/></svg>